<?xml version="1.0" encoding="utf-8"?>
<!-- Generator: Adobe Illustrator 19.1.0, SVG Export Plug-In . SVG Version: 6.00 Build 0)  -->
<!DOCTYPE svg PUBLIC "-//W3C//DTD SVG 1.1//EN" "http://www.w3.org/Graphics/SVG/1.1/DTD/svg11.dtd">
<svg version="1.1" id="Layer_1" xmlns="http://www.w3.org/2000/svg" xmlns:xlink="http://www.w3.org/1999/xlink" x="0px" y="0px"
	 viewBox="-339 164.9 512 512" style="enable-background:new -339 164.9 512 512;" xml:space="preserve">
<style type="text/css">
	.st0{fill:#FFFFFF;}
</style>
<path id="facebook-circle-icon" class="st0" d="M-82.6,214.9c-113.8,0-206,92.2-206,206s92.2,206,206,206s206-92.2,206-206
	S31.2,214.9-82.6,214.9z M-21.6,336.1c0,0-20.6,0-28.8,0c-10.2,0-12.3,4.2-12.3,14.7c0,8.8,0,25.4,0,25.4h41.1l-4,44.6h-37.1V554
	h-53.2V421.3h-27.7v-45.2h27.7c0,0,0-6.5,0-35.6c0-33.4,17.8-50.8,57.4-50.8c6.5,0,36.8,0,36.8,0L-21.6,336.1L-21.6,336.1z"/>
</svg>
