<?xml version="1.0" encoding="utf-8"?>
<!-- Generator: Adobe Illustrator 19.1.0, SVG Export Plug-In . SVG Version: 6.00 Build 0)  -->
<!DOCTYPE svg PUBLIC "-//W3C//DTD SVG 1.1//EN" "http://www.w3.org/Graphics/SVG/1.1/DTD/svg11.dtd">
<svg version="1.1" id="Layer_1" xmlns="http://www.w3.org/2000/svg" xmlns:xlink="http://www.w3.org/1999/xlink" x="0px" y="0px"
	 viewBox="-339 164.9 512 512" style="enable-background:new -339 164.9 512 512;" xml:space="preserve">
<style type="text/css">
	.st0{fill:#FFFFFF;}
</style>
<path id="vimeo-circle-icon" class="st0" d="M-83,214.9c-113.8,0-206,92.2-206,206s92.2,206,206,206s206-92.2,206-206
	S30.8,214.9-83,214.9z M37.2,376.6c-1.1,24-17.9,56.9-50.3,98.6c-33.5,43.6-61.9,65.4-85.1,65.4c-14.4,0-26.5-13.3-36.5-39.8
	c-6.6-24.3-13.3-48.7-19.9-73c-7.4-26.5-15.3-39.8-23.8-39.8c-1.8,0-8.3,3.9-19.4,11.6l-11.6-15c12.2-10.7,24.2-21.4,36-32.1
	c16.2-14,28.4-21.4,36.5-22.2c19.2-1.8,31,11.3,35.4,39.4c4.8,30.3,8.1,49.2,10,56.5c5.5,25.1,11.6,37.7,18.3,37.7
	c5.2,0,12.9-8.2,23.3-24.5c10.3-16.3,15.9-28.7,16.6-37.2c1.5-14.1-4.1-21.1-16.6-21.1c-5.9,0-12,1.4-18.3,4
	c12.1-39.7,35.3-59,69.4-57.9C26.7,328,38.6,344.4,37.2,376.6z"/>
</svg>
