<?xml version="1.0" encoding="utf-8"?>
<!-- Generator: Adobe Illustrator 19.1.0, SVG Export Plug-In . SVG Version: 6.00 Build 0)  -->
<!DOCTYPE svg PUBLIC "-//W3C//DTD SVG 1.1//EN" "http://www.w3.org/Graphics/SVG/1.1/DTD/svg11.dtd">
<svg version="1.1" id="Layer_1" xmlns="http://www.w3.org/2000/svg" xmlns:xlink="http://www.w3.org/1999/xlink" x="0px" y="0px"
	 viewBox="-339 164.9 512 512" style="enable-background:new -339 164.9 512 512;" xml:space="preserve">
<style type="text/css">
	.st0{fill:#FFFFFF;}
</style>
<path class="st0" d="M-83,215.9c-113.8,0-206,92.2-206,206c0,87.3,54.3,161.8,130.9,191.8c-1.8-16.3-3.4-41.3,0.7-59.1
	c3.7-16.1,24.2-102.4,24.2-102.4s-6.2-12.3-6.2-30.6c0-28.6,16.6-50,37.3-50c17.6,0,26.1,13.2,26.1,29c0,17.7-11.2,44.1-17.1,68.6
	c-4.9,20.5,10.3,37.2,30.5,37.2c36.6,0,64.8-38.6,64.8-94.3c0-49.3-35.4-83.8-86-83.8c-58.6,0-93,44-93,89.4
	c0,17.7,6.8,36.7,15.3,47c1.7,2,1.9,3.8,1.4,5.9l-5.7,23.3c-0.9,3.8-3,4.6-6.9,2.8c-25.7-12-41.8-49.6-41.8-79.8
	c0-65,47.2-124.7,136.1-124.7c71.5,0,127,50.9,127,119c0,71-44.8,128.1-106.9,128.1c-20.9,0-40.5-10.8-47.2-23.7l-12.8,49
	c-4.7,17.9-17.2,40.3-25.6,54c19.3,6,39.8,9.2,61,9.2c113.8,0,206-92.2,206-206C123,308.1,30.8,215.9-83,215.9z"/>
</svg>
