<?xml version="1.0" encoding="utf-8"?>
<!-- Generator: Adobe Illustrator 19.1.0, SVG Export Plug-In . SVG Version: 6.00 Build 0)  -->
<!DOCTYPE svg PUBLIC "-//W3C//DTD SVG 1.1//EN" "http://www.w3.org/Graphics/SVG/1.1/DTD/svg11.dtd">
<svg version="1.1" id="Layer_1" xmlns="http://www.w3.org/2000/svg" xmlns:xlink="http://www.w3.org/1999/xlink" x="0px" y="0px"
	 viewBox="-339 164.9 512 512" style="enable-background:new -339 164.9 512 512;" xml:space="preserve">
<style type="text/css">
	.st0{fill:#FFFFFF;}
</style>
<path id="youtube-4-icon" class="st0" d="M-51.4,451.8c-4.7,0-8.7,3-11.6,6.6v-30.7h-13.2v95.4H-63v-5.4c3.6,4.5,7.6,6.3,12.4,6.3
	c8.7,0,12-6.8,12-15.5v-39C-38.6,459.9-41.8,451.8-51.4,451.8z M-52.1,506.6c0,2.2-0.4,3.9-1.1,4.9c-1.4,1.9-4.6,1.8-6.7,0.7
	c-1-0.5-2-1.3-3.1-2.5v-43.9c0.9-1,1.8-1.7,2.7-2.1c2.3-1.2,5.2-0.9,6.8,1.2c0.9,1.2,1.4,3,1.4,5.4L-52.1,506.6L-52.1,506.6z
	 M-96.1,368.2v-34.4c0-4,1.9-7,5.7-7c4.2,0,6,2.9,6,7v34.4c0,4-2.1,7-5.7,7C-94,375.2-96.1,372.1-96.1,368.2z M-102.1,452.7H-89
	v70.4h-13.1v-7.8c-2.4,2.9-4.9,5-7.5,6.5c-7.1,4-16.7,4-16.7-10.3v-58.8h13.1v53.9c0,2.8,0.7,4.7,3.5,4.7c2.6,0,6.1-3.3,7.7-5.3
	V452.7z M-126.1,441.5h-15.2v81.5h-14.7v-81.5h-15.2v-13.8h45.2L-126.1,441.5L-126.1,441.5z M-8.9,450.9c-11.8,0-19.9,8.5-19.9,20.7
	v31.6c0,12.7,6.4,21.8,18.9,21.8c13.8,0,19.6-8.2,19.6-21.8v-5.3H-3.7v4.9c0,6.1-0.3,9.8-5.8,9.8c-5.3,0-5.7-4.6-5.7-9.8v-13.3h25
	v-17.9C9.7,458.9,3.7,450.9-8.9,450.9z M-3.7,478.6h-11.6v-7.1c0-4.8,1-8.2,5.8-8.2c4.7,0,5.7,3.5,5.7,8.2L-3.7,478.6L-3.7,478.6z
	 M-83,214.9c-113.8,0-206,92.2-206,206s92.2,206,206,206c113.8,0,206-92.2,206-206S30.8,214.9-83,214.9z M-58.7,313.4H-45V370
	c0,3,0.7,5,3.7,5c2.7,0,6.4-3.4,8.1-5.5v-56.1h13.7v73.9h-13.7v-8.2c-6,7.1-11.7,9.2-15.9,9.2c-7.4,0-9.6-5.9-9.6-13.2L-58.7,313.4
	L-58.7,313.4z M-90.2,312.8c11.1,0,19.8,8.3,19.8,19.9v36.2c0,12.4-8.7,19.8-19.8,19.8c-13.3,0-20.1-6.8-20.1-19.8v-36.2
	C-110.3,320.8-102.3,312.8-90.2,312.8z M-145.9,287.1l10.7,40l9.9-40h15.7l-18,59.5v40.6h-15.5v-40.6l-18.4-59.5H-145.9z
	 M30.5,515.2c0,17.4-14.1,31.5-31.5,31.5H-163c-17.4,0-31.5-14.1-31.5-31.5v-79.6c0-17.4,14.1-31.5,31.5-31.5H-1
	c17.4,0,31.5,14.1,31.5,31.5V515.2z"/>
</svg>
