<?xml version="1.0" encoding="utf-8"?>
<!-- Generator: Adobe Illustrator 19.1.0, SVG Export Plug-In . SVG Version: 6.00 Build 0)  -->
<!DOCTYPE svg PUBLIC "-//W3C//DTD SVG 1.1//EN" "http://www.w3.org/Graphics/SVG/1.1/DTD/svg11.dtd">
<svg version="1.1" id="Layer_1" xmlns="http://www.w3.org/2000/svg" xmlns:xlink="http://www.w3.org/1999/xlink" x="0px" y="0px"
	 viewBox="-339 164.9 512 512" style="enable-background:new -339 164.9 512 512;" xml:space="preserve">
<style type="text/css">
	.st0{fill:#FFFFFF;}
</style>
<path id="twitter-4-icon" class="st0" d="M-83,214.9c-113.8,0-206,92.2-206,206s92.2,206,206,206s206-92.2,206-206
	S30.8,214.9-83,214.9z M20.6,385.4c3,67.2-47.1,142.1-135.8,142.1c-27,0-52.1-7.9-73.2-21.5c25.3,3,50.6-4,70.7-19.8
	c-20.9-0.4-38.6-14.2-44.6-33.2c7.5,1.4,14.9,1,21.6-0.8c-23-4.6-38.8-25.3-38.3-47.5c6.4,3.6,13.8,5.7,21.6,6
	c-21.3-14.2-27.3-42.3-14.8-63.8c23.6,28.9,58.8,47.9,98.5,49.9c-7-29.9,15.7-58.7,46.5-58.7c13.7,0,26.2,5.8,34.9,15.1
	c10.9-2.1,21.1-6.1,30.3-11.6c-3.6,11.2-11.1,20.5-21,26.4c9.7-1.2,18.9-3.7,27.4-7.5C38,370.2,29.9,378.7,20.6,385.4z"/>
</svg>
