<?xml version="1.0" encoding="utf-8"?>
<!-- Generator: Adobe Illustrator 19.1.0, SVG Export Plug-In . SVG Version: 6.00 Build 0)  -->
<!DOCTYPE svg PUBLIC "-//W3C//DTD SVG 1.1//EN" "http://www.w3.org/Graphics/SVG/1.1/DTD/svg11.dtd">
<svg version="1.1" id="Layer_1" xmlns="http://www.w3.org/2000/svg" xmlns:xlink="http://www.w3.org/1999/xlink" x="0px" y="0px"
	 viewBox="-339 164.9 512 512" style="enable-background:new -339 164.9 512 512;" xml:space="preserve">
<style type="text/css">
	.st0{fill:#FFFFFF;}
</style>
<path id="layer-6-icon" class="st0" d="M54.3,249.2h-309v309H-289V214.9H54.3V249.2z M123,283.6v343.3h-343.3V283.6H123z
	 M37.2,452.2c0,0-30.7-44.6-85.7-44.6c-54.1,0-86,44.6-86,44.6s34.6,50.7,86,50.7C6.8,502.9,37.2,452.2,37.2,452.2z M-47.8,429.4
	c-1.6,0-3.1,0.2-4.7,0.4c4.5,12.8-8,25-20.6,20.4c-0.3,1.6-0.5,3.3-0.5,5c0,14.2,11.5,25.8,25.8,25.8c14.2,0,25.8-11.6,25.8-25.8
	C-22.1,441-33.6,429.4-47.8,429.4z"/>
</svg>
