<?xml version="1.0" encoding="utf-8"?>
<!-- Generator: Adobe Illustrator 19.1.0, SVG Export Plug-In . SVG Version: 6.00 Build 0)  -->
<!DOCTYPE svg PUBLIC "-//W3C//DTD SVG 1.1//EN" "http://www.w3.org/Graphics/SVG/1.1/DTD/svg11.dtd">
<svg version="1.1" id="Layer_1" xmlns="http://www.w3.org/2000/svg" xmlns:xlink="http://www.w3.org/1999/xlink" x="0px" y="0px"
	 viewBox="-339 164.9 512 512" style="enable-background:new -339 164.9 512 512;" xml:space="preserve">
<style type="text/css">
	.st0{fill:#2500FF;}
</style>
<path id="instagram-9-icon" class="st0" d="M-126.4,420.9c0-24.6,19.9-44.4,44.4-44.4s44.5,19.9,44.5,44.4s-19.9,44.5-44.5,44.5
	C-106.6,465.3-126.4,445.4-126.4,420.9z M-10.9,420.9c0,39.3-31.8,71.1-71.1,71.1s-71.1-31.8-71.1-71.1c0-6.1,0.9-12.1,2.3-17.8
	h-20.1v97.8c0,4.9,4,8.9,8.9,8.9H-2c4.9,0,8.9-4,8.9-8.9v-97.8h-20.1C-11.8,408.8-10.9,414.7-10.9,420.9z M-2,332h-26.7
	c-4.9,0-8.9,4-8.9,8.9v26.7c0,4.9,4,8.9,8.9,8.9H-2c4.9,0,8.9-4,8.9-8.9v-26.7C6.9,336,2.9,332-2,332z M123,420.9
	c0,113.8-92.2,206-206,206s-206-92.2-206-206s92.2-206,206-206S123,307.1,123,420.9z M33.6,332c0-14.7-11.9-26.7-26.7-26.7h-177.8
	c-14.7,0-26.7,11.9-26.7,26.7v177.8c0,14.7,11.9,26.7,26.7,26.7H6.9c14.7,0,26.7-11.9,26.7-26.7L33.6,332L33.6,332z"/>
</svg>
