<?xml version="1.0" encoding="utf-8"?>
<!-- Generator: Adobe Illustrator 19.1.0, SVG Export Plug-In . SVG Version: 6.00 Build 0)  -->
<!DOCTYPE svg PUBLIC "-//W3C//DTD SVG 1.1//EN" "http://www.w3.org/Graphics/SVG/1.1/DTD/svg11.dtd">
<svg version="1.1" id="Layer_1" xmlns="http://www.w3.org/2000/svg" xmlns:xlink="http://www.w3.org/1999/xlink" x="0px" y="0px"
	 viewBox="-339 164.9 512 512" style="enable-background:new -339 164.9 512 512;" xml:space="preserve">
<style type="text/css">
	.st0{fill:#FFFFFF;}
</style>
<path id="light-bulb-3-icon" class="st0" d="M-183.4,271.3c-1.9-8.5,3.4-17,11.9-18.9c74.1-16.7,76.8-14.5,84-28.8
	c3.9-7.8,13.4-10.9,21.2-7c16,8,7,42.5-25.8,50.4c-10.7,2.6-72.5,16.3-72.5,16.3C-173,285.1-181.5,279.8-183.4,271.3z M-164.5,337.5
	l170-38.2c8.5-1.9,13.9-10.4,11.9-18.9c-1.9-8.5-10.4-13.9-18.9-11.9l-170,38.2c-8.5,1.9-13.9,10.4-11.9,18.9
	C-181.5,334.1-173,339.4-164.5,337.5z M17.4,334.7c-1.9-8.5-10.4-13.9-18.9-11.9l-170,38.2c-8.5,1.9-13.9,10.4-11.9,18.9
	c4.1,18.1,55.4,31.7,55.4,66.8v12.8h-40.5c0,0,0,20.3,0,41c0,33.7,32.6,46.7,41.4,84.7c0,0,76.2,0,87.6,0
	c8.7-37.4,41.8-51,41.8-84.7v-41h-41.6v-20.7c0-12.6,8.7-23.5,21-26.3l21.9-5c8.5-1.9,13.9-10.4,11.9-18.9
	c-1.9-8.5-10.4-13.9-18.9-11.9l-25.2,5.9c-24.4,5.7-41.7,27.5-41.7,52.6v24.3H-97v-16.1c0-27.9-17.3-39.3-37.6-58.3L5.5,353.6
	C14,351.7,19.3,343.3,17.4,334.7z M-91.8,626.9h16.6c8.4,0,10.5-3.7,33.3-24h-82.5C-102.7,622.9-100.4,626.9-91.8,626.9z"/>
</svg>
