<?xml version="1.0" encoding="utf-8"?>
<!-- Generator: Adobe Illustrator 19.1.0, SVG Export Plug-In . SVG Version: 6.00 Build 0)  -->
<!DOCTYPE svg PUBLIC "-//W3C//DTD SVG 1.1//EN" "http://www.w3.org/Graphics/SVG/1.1/DTD/svg11.dtd">
<svg version="1.1" id="Layer_1" xmlns="http://www.w3.org/2000/svg" xmlns:xlink="http://www.w3.org/1999/xlink" x="0px" y="0px"
	 viewBox="-339 164.9 512 512" style="enable-background:new -339 164.9 512 512;" xml:space="preserve">
<style type="text/css">
	.st0{fill:#FFFFFF;}
</style>
<path id="map-icon" class="st0" d="M57.8,215c-36,0-65.2,29.2-65.2,65.2c0,53.5,51.2,59.2,65.2,140.5c13.9-81.4,65.2-87,65.2-140.5
	C123,244.2,93.8,215,57.8,215z M57.8,302c-12.9,0-23.4-10.5-23.4-23.4c0-12.9,10.5-23.4,23.4-23.4c12.9,0,23.4,10.5,23.4,23.4
	C81.2,291.5,70.8,302,57.8,302z M121,356.3c-10.8,13.5-21.1,26.4-28.1,47.1v143.5l-75,40.7V391.4c-4.4-9.5-9.5-17.2-15-24.5v219
	L-78.8,533V317.2l71,35.9c-10.3-13-21-27.4-26.2-47.2L-86,279.5l-93.8,48.7L-289,270.1v294.3l109.2,62.3l93.8-62.3l95.8,62.3
	L123,564.4V353.8C122.3,354.7,121.7,355.5,121,356.3z M-188,587.6l-71-40.7V320l71,37.9V587.6z M-93.2,533l-79.8,52.9V358.6
	l79.8-41.4V533z"/>
</svg>
