<?xml version="1.0" encoding="UTF-8" standalone="no"?>
<svg width="39px" height="39px" viewBox="0 0 39 39" version="1.1" xmlns="http://www.w3.org/2000/svg" xmlns:xlink="http://www.w3.org/1999/xlink" xmlns:sketch="http://www.bohemiancoding.com/sketch/ns">
    <!-- Generator: Sketch 3.5.2 (25235) - http://www.bohemiancoding.com/sketch -->
    <title>info-icon-outline</title>
    <desc>Created with Sketch.</desc>
    <defs>
        <path id="path-1" d="M18.4998252,0.5 C8.55884466,0.5 0.5,8.5587964 0.5,18.4999126 C0.5,28.4411162 8.55884466,36.5 18.4998252,36.5 C28.4409806,36.5 36.5,28.4411162 36.5,18.4999126 C36.5,8.5587964 28.441068,0.5 18.4998252,0.5 L18.4998252,0.5 Z"></path>
    </defs>
    <g id="Desktop-grid-system" stroke="none" stroke-width="1" fill="none" fill-rule="evenodd" sketch:type="MSPage">
        <g id="Desktop-SLQ-Homepage" sketch:type="MSArtboardGroup" transform="translate(-494.000000, -3196.000000)">
            <g id="How-can-we-help-you" sketch:type="MSLayerGroup" transform="translate(495.000000, 3197.000000)">
                <g id="info-icon-outline">
                    <g id="info-icon-circle">
                        <use stroke="#000000" stroke-width="3" sketch:type="MSShapeGroup" xlink:href="#path-1"></use>
                        <use stroke="none" xlink:href="#path-1"></use>
                    </g>
                    <path d="M21.3856796,29.0940126 L15.7890777,29.0940126 L15.7890777,15.9611139 L21.3856796,15.9611139 L21.3856796,29.0940126 L21.3856796,29.0940126 Z" id="info-icon-i-bar" fill="#000000" sketch:type="MSShapeGroup"></path>
                    <path d="M15.5673107,10.3143292 C15.5673107,8.6464376 16.9194951,7.29424657 18.5873786,7.29424657 C20.2554369,7.29424657 21.6073592,8.64652498 21.6073592,10.3143292 C21.6073592,11.9823082 20.2554369,13.3344992 18.5873786,13.3344992 C16.9194951,13.3344992 15.5673107,11.9822208 15.5673107,10.3143292 Z" id="info-icon-i-dot" fill="#000000" sketch:type="MSShapeGroup"></path>
                </g>
            </g>
        </g>
    </g>
</svg>