<?xml version="1.0" encoding="UTF-8" standalone="no"?>
<svg width="940px" height="300px" viewBox="0 0 940 300" version="1.1" xmlns="http://www.w3.org/2000/svg" xmlns:xlink="http://www.w3.org/1999/xlink" xmlns:sketch="http://www.bohemiancoding.com/sketch/ns">
    <!-- Generator: Sketch 3.5.1 (25234) - http://www.bohemiancoding.com/sketch -->
    <title>One Search</title>
    <desc>Created with Sketch.</desc>
    <defs></defs>
    <g id="Treatment" stroke="none" stroke-width="1" fill="none" fill-rule="evenodd" sketch:type="MSPage">
        <g id="Treatment-3:-Big-search" sketch:type="MSArtboardGroup" transform="translate(-250.000000, -171.000000)">
            <g id="One-Search" sketch:type="MSLayerGroup" transform="translate(250.000000, 171.000000)">
                <rect id="Rectangle-2-Copy" fill="#F8E81C" sketch:type="MSShapeGroup" x="0" y="0" width="940" height="300"></rect>
                <rect id="Rectangle-13" stroke="#000000" stroke-width="4" fill="#FFFFFF" sketch:type="MSShapeGroup" x="24" y="93" width="436" height="60"></rect>
                <rect id="Rectangle-13" stroke="#000000" stroke-width="4" fill="#FFFFFF" sketch:type="MSShapeGroup" x="480" y="93" width="300" height="60"></rect>
                <g id="icon" transform="translate(800.000000, 93.000000)" stroke="#000000" stroke-width="4" sketch:type="MSShapeGroup">
                    <rect id="Rectangle-13-Copy" fill="#FFFFFF" x="0" y="0" width="65.5677365" height="60"></rect>
                    <path d="M27.2939506,39 C34.083712,39 39.5879012,33.627417 39.5879012,27 C39.5879012,20.372583 34.083712,15 27.2939506,15 C20.5041892,15 15,20.372583 15,27 C15,33.627417 20.5041892,39 27.2939506,39 Z" id="Oval-1"></path>
                    <path d="M37.0266615,34.5 L48.3425879,45.5453606" id="Line" stroke-linecap="square"></path>
                </g>
                <text id="SLQ-Collections-+-er" sketch:type="MSTextLayer" font-family="Helvetica" font-size="18" font-weight="normal" line-spacing="20" fill="#000000">
                    <tspan x="496" y="132">SLQ Collections + eresources</tspan>
                </text>
                <polygon id="Triangle-3" fill="#000000" sketch:type="MSShapeGroup" points="753 130.8678 761 120 745 120 "></polygon>
            </g>
        </g>
    </g>
</svg>