<?xml version="1.0" encoding="UTF-8" standalone="no"?>
<svg width="32px" height="32px" viewBox="0 0 32 32" version="1.1" xmlns="http://www.w3.org/2000/svg" xmlns:xlink="http://www.w3.org/1999/xlink" xmlns:sketch="http://www.bohemiancoding.com/sketch/ns">
    <!-- Generator: Sketch 3.5.1 (25234) - http://www.bohemiancoding.com/sketch -->
    <title>time-icon</title>
    <desc>Created with Sketch.</desc>
    <defs></defs>
    <g id="Treatment" stroke="none" stroke-width="1" fill="none" fill-rule="evenodd" sketch:type="MSPage">
        <g id="Treatment-2:-Big-what's-on" sketch:type="MSArtboardGroup" transform="translate(-908.000000, -838.000000)" fill="#000000">
            <g id="Opening-hours" sketch:type="MSLayerGroup" transform="translate(890.000000, 811.000000)">
                <path d="M43.0810811,46.027027 L31.8378378,46.027027 L31.8378378,33.9189189 L35.4646905,33.9189189 L35.4646905,42.4774188 L43.0810811,42.4774188 L43.0810811,46.027027 L43.0810811,46.027027 Z M34,30.4594595 C27.0682746,30.4594595 21.4594595,36.0693651 21.4594595,43 C21.4594595,49.9317254 27.069443,55.5405405 34,55.5405405 C40.9317254,55.5405405 46.5405405,49.930557 46.5405405,43 C46.5405405,36.0681967 40.930557,30.4594595 34,30.4594595 L34,30.4594595 Z M50,43 C50,51.8365825 42.8365825,59 34,59 C25.1634175,59 18,51.8365825 18,43 C18,34.1634175 25.1634175,27 34,27 C42.8365825,27 50,34.1634175 50,43 Z" id="time-icon" sketch:type="MSShapeGroup"></path>
            </g>
        </g>
    </g>
</svg>